<svg xmlns="http://www.w3.org/2000/svg" width="375" viewBox="0 0 375 375" height="375" version="1.0"><path fill="#8247E5" d="M 168.09375 143.953125 C 184.761719 133.164062 208.636719 129.789062 202.347656 105.125 C 201.917969 89.8125 204.445312 80.785156 188.570312 72.164062 C 164.6875 58.601562 140.898438 44.859375 117.425781 30.601562 C 107.644531 24.660156 98.675781 24.136719 88.835938 29.796875 C 63.617188 44.3125 38.253906 58.578125 12.992188 73.019531 C 4.761719 77.726562 0.332031 84.449219 0.460938 94.496094 C 0.820312 123.109375 1.257812 151.746094 0.425781 180.335938 C 0.0625 192.910156 5.105469 200.585938 15.304688 206.304688 C 39.96875 220.132812 64.679688 233.886719 89.164062 248.035156 C 97.929688 253.097656 106.226562 253.40625 114.859375 248.449219 C 162.058594 221.46875 209.03125 194.085938 256.304688 167.234375 C 266.988281 161.203125 277.683594 161.902344 288.3125 168.386719 C 349.210938 202.339844 336.296875 191.464844 337.734375 258.617188 C 339.011719 284.042969 304.222656 290.832031 287.433594 304.050781 C 275.785156 311.273438 264.675781 310.359375 253.3125 303.609375 C 221.339844 282.667969 197.753906 285.136719 204.652344 238.753906 C 204.992188 233.625 202.765625 231.890625 198.234375 234.445312 C 189.855469 239.164062 181.601562 244.09375 173.386719 249.089844 C 172.078125 249.882812 170.320312 251.492188 170.351562 252.683594 C 170.6875 265.773438 170.691406 278.9375 172.316406 291.882812 C 172.769531 295.492188 177.738281 299.367188 181.53125 301.582031 C 206.433594 316.117188 231.785156 329.898438 256.5625 344.640625 C 267.4375 351.113281 277.082031 350.257812 287.453125 344.242188 C 310.503906 330.867188 333.527344 317.417969 356.9375 304.695312 C 368.9375 298.167969 374.21875 289.15625 373.957031 275.503906 C 373.480469 250.476562 373.171875 225.394531 374.25 200.398438 C 374.925781 184.679688 369.457031 174.570312 355.613281 167.15625 C 332.140625 154.582031 309.222656 140.957031 286.191406 127.5625 C 276.296875 121.808594 266.855469 121.121094 256.664062 127.078125 C 210.441406 154.101562 163.96875 180.699219 117.851562 207.898438 C 106.738281 214.453125 96.800781 214.074219 86.1875 207.601562 C 26.660156 172.035156 33.78125 186.132812 34.585938 116.074219 C 34.375 104.847656 39.234375 97.371094 48.71875 92.03125 C 71.433594 81.566406 94.550781 54.195312 120.558594 72.554688 C 163.257812 101.746094 170.460938 84.542969 168.09375 143.953125 Z M 168.09375 143.953125"/><path fill="#8247E5" d="M 168.09375 143.953125 C 170.539062 84.625 163.042969 101.59375 120.554688 72.554688 C 94.53125 54.171875 71.457031 81.585938 48.71875 92.027344 C 39.234375 97.371094 34.378906 104.847656 34.582031 116.078125 C 33.769531 185.859375 26.652344 172.136719 86.191406 207.597656 C 96.800781 214.078125 106.738281 214.453125 117.851562 207.894531 C 163.96875 180.699219 210.441406 154.101562 256.664062 127.078125 C 266.851562 121.121094 276.296875 121.808594 286.191406 127.566406 C 309.222656 140.957031 332.140625 154.582031 355.613281 167.15625 C 369.453125 174.574219 374.925781 184.679688 374.25 200.402344 C 373.171875 225.398438 373.480469 250.476562 373.957031 275.507812 C 374.21875 289.15625 368.9375 298.171875 356.9375 304.695312 C 333.527344 317.421875 310.503906 330.867188 287.453125 344.242188 C 277.078125 350.261719 267.433594 351.117188 256.5625 344.644531 C 231.785156 329.898438 206.4375 316.117188 181.53125 301.582031 C 177.738281 299.367188 172.769531 295.492188 172.316406 291.886719 C 170.695312 278.9375 170.6875 265.777344 170.351562 252.6875 C 170.320312 251.496094 172.082031 249.882812 173.386719 249.089844 C 181.601562 244.09375 189.859375 239.164062 198.234375 234.445312 C 202.769531 231.894531 204.992188 233.625 204.652344 238.753906 C 197.695312 285.0625 221.488281 282.78125 253.3125 303.613281 C 264.675781 310.359375 275.785156 311.277344 287.433594 304.050781 C 304.273438 290.847656 339.03125 283.964844 337.738281 258.621094 C 336.3125 191.746094 349.203125 202.230469 288.3125 168.390625 C 277.6875 161.90625 266.992188 161.203125 256.304688 167.238281 C 209.03125 194.085938 162.0625 221.472656 114.863281 248.453125 C 106.226562 253.40625 97.929688 253.101562 89.164062 248.039062 C 64.679688 233.890625 39.972656 220.132812 15.308594 206.304688 C 5.105469 200.585938 0.0625 192.910156 0.425781 180.335938 C 1.257812 151.746094 0.820312 123.109375 0.460938 94.496094 C 0.332031 84.449219 4.761719 77.726562 12.992188 73.019531 C 38.253906 58.578125 63.617188 44.3125 88.835938 29.800781 C 98.675781 24.136719 107.644531 24.660156 117.425781 30.605469 C 140.898438 44.859375 164.6875 58.601562 188.570312 72.164062 C 204.386719 80.769531 201.945312 89.753906 202.347656 105.128906 C 208.628906 129.78125 184.769531 133.175781 168.09375 143.953125 Z M 168.09375 143.953125"/></svg>