<svg xmlns="http://www.w3.org/2000/svg" width="375" viewBox="0 0 375 56.25" height="56.25" version="1.0"><defs><clipPath id="a"><path d="M 2.46875 0.113281 L 66.328125 0.113281 L 66.328125 55.511719 L 2.46875 55.511719 Z M 2.46875 0.113281"/></clipPath></defs><g clip-path="url(#a)" fill="#8247E5"><path d="M 31.09375 20.511719 C 33.929688 18.675781 37.996094 18.101562 36.925781 13.902344 C 36.851562 11.296875 37.285156 9.757812 34.578125 8.289062 C 30.511719 5.980469 26.460938 3.640625 22.464844 1.214844 C 20.796875 0.203125 19.273438 0.113281 17.597656 1.078125 C 13.300781 3.546875 8.980469 5.976562 4.679688 8.4375 C 3.277344 9.238281 2.523438 10.382812 2.546875 12.09375 C 2.609375 16.964844 2.683594 21.839844 2.539062 26.707031 C 2.476562 28.847656 3.335938 30.15625 5.074219 31.128906 C 9.273438 33.484375 13.480469 35.824219 17.652344 38.234375 C 19.144531 39.09375 20.558594 39.148438 22.027344 38.304688 C 30.066406 33.710938 38.0625 29.046875 46.113281 24.476562 C 47.933594 23.449219 49.753906 23.570312 51.566406 24.671875 C 61.933594 30.453125 59.734375 28.601562 59.980469 40.035156 C 60.199219 44.363281 54.273438 45.519531 51.414062 47.769531 C 49.433594 49 47.539062 48.84375 45.605469 47.695312 C 40.160156 44.128906 36.144531 44.550781 37.316406 36.652344 C 37.375 35.78125 36.996094 35.484375 36.226562 35.917969 C 34.800781 36.722656 33.394531 37.5625 31.992188 38.414062 C 31.773438 38.546875 31.472656 38.820312 31.476562 39.023438 C 31.535156 41.253906 31.535156 43.496094 31.8125 45.699219 C 31.890625 46.3125 32.734375 46.972656 33.382812 47.351562 C 37.621094 49.824219 41.9375 52.171875 46.15625 54.679688 C 48.011719 55.78125 49.652344 55.636719 51.417969 54.613281 C 55.34375 52.335938 59.265625 50.046875 63.25 47.878906 C 65.296875 46.769531 66.195312 45.234375 66.148438 42.910156 C 66.070312 38.648438 66.015625 34.378906 66.199219 30.125 C 66.316406 27.445312 65.382812 25.726562 63.027344 24.464844 C 59.027344 22.324219 55.125 20.003906 51.203125 17.722656 C 49.519531 16.742188 47.910156 16.625 46.175781 17.640625 C 38.304688 22.242188 30.390625 26.769531 22.539062 31.398438 C 20.644531 32.515625 18.953125 32.453125 17.144531 31.347656 C 7.007812 25.292969 8.222656 27.695312 8.359375 15.765625 C 8.320312 13.855469 9.148438 12.582031 10.765625 11.671875 C 14.632812 9.890625 18.570312 5.230469 22.996094 8.355469 C 30.269531 13.328125 31.496094 10.398438 31.09375 20.511719 Z M 31.09375 20.511719"/><path d="M 31.09375 20.511719 C 31.507812 10.410156 30.234375 13.300781 22.996094 8.355469 C 18.566406 5.226562 14.636719 9.894531 10.765625 11.671875 C 9.148438 12.582031 8.324219 13.855469 8.355469 15.765625 C 8.21875 27.648438 7.007812 25.3125 17.144531 31.347656 C 18.953125 32.453125 20.644531 32.515625 22.539062 31.398438 C 30.390625 26.769531 38.304688 22.242188 46.175781 17.640625 C 47.910156 16.625 49.519531 16.742188 51.203125 17.722656 C 55.125 20.003906 59.027344 22.324219 63.027344 24.464844 C 65.382812 25.726562 66.316406 27.445312 66.199219 30.125 C 66.015625 34.378906 66.070312 38.648438 66.148438 42.910156 C 66.195312 45.234375 65.296875 46.769531 63.25 47.878906 C 59.265625 50.046875 55.34375 52.335938 51.417969 54.613281 C 49.652344 55.636719 48.007812 55.785156 46.160156 54.683594 C 41.9375 52.171875 37.621094 49.824219 33.382812 47.351562 C 32.734375 46.972656 31.890625 46.3125 31.8125 45.699219 C 31.535156 43.496094 31.535156 41.253906 31.476562 39.027344 C 31.472656 38.824219 31.773438 38.546875 31.992188 38.414062 C 33.394531 37.5625 34.800781 36.722656 36.226562 35.921875 C 36.996094 35.484375 37.375 35.78125 37.316406 36.652344 C 36.132812 44.539062 40.183594 44.148438 45.605469 47.695312 C 47.539062 48.84375 49.433594 49 51.414062 47.769531 C 54.28125 45.523438 60.203125 44.351562 59.980469 40.035156 C 59.738281 28.648438 61.933594 30.433594 51.566406 24.671875 C 49.753906 23.570312 47.933594 23.449219 46.113281 24.476562 C 38.0625 29.046875 30.066406 33.710938 22.027344 38.304688 C 20.558594 39.148438 19.144531 39.097656 17.652344 38.234375 C 13.484375 35.824219 9.273438 33.484375 5.074219 31.128906 C 3.335938 30.15625 2.476562 28.847656 2.539062 26.707031 C 2.683594 21.839844 2.609375 16.964844 2.546875 12.09375 C 2.523438 10.382812 3.277344 9.238281 4.679688 8.4375 C 8.980469 5.976562 13.300781 3.546875 17.597656 1.078125 C 19.273438 0.113281 20.796875 0.203125 22.464844 1.214844 C 26.460938 3.640625 30.511719 5.980469 34.578125 8.289062 C 37.273438 9.753906 36.855469 11.285156 36.925781 13.902344 C 37.996094 18.101562 33.933594 18.679688 31.09375 20.511719 Z M 31.09375 20.511719"/></g><g><g><g><path d="M 17.34375 0.578125 C 14.3125 0.578125 11.582031 -0.0625 9.15625 -1.34375 C 6.738281 -2.632812 4.835938 -4.414062 3.453125 -6.6875 C 2.078125 -8.957031 1.390625 -11.515625 1.390625 -14.359375 C 1.390625 -17.203125 2.078125 -19.757812 3.453125 -22.03125 C 4.835938 -24.300781 6.738281 -26.078125 9.15625 -27.359375 C 11.582031 -28.640625 14.3125 -29.28125 17.34375 -29.28125 C 20.382812 -29.28125 23.113281 -28.640625 25.53125 -27.359375 C 27.945312 -26.078125 29.847656 -24.300781 31.234375 -22.03125 C 32.617188 -19.757812 33.3125 -17.203125 33.3125 -14.359375 C 33.3125 -11.515625 32.617188 -8.957031 31.234375 -6.6875 C 29.847656 -4.414062 27.945312 -2.632812 25.53125 -1.34375 C 23.113281 -0.0625 20.382812 0.578125 17.34375 0.578125 Z M 17.34375 -6.15625 C 18.800781 -6.15625 20.113281 -6.492188 21.28125 -7.171875 C 22.457031 -7.859375 23.390625 -8.820312 24.078125 -10.0625 C 24.765625 -11.3125 25.109375 -12.742188 25.109375 -14.359375 C 25.109375 -15.972656 24.765625 -17.398438 24.078125 -18.640625 C 23.390625 -19.890625 22.457031 -20.851562 21.28125 -21.53125 C 20.113281 -22.21875 18.800781 -22.5625 17.34375 -22.5625 C 15.894531 -22.5625 14.582031 -22.21875 13.40625 -21.53125 C 12.238281 -20.851562 11.3125 -19.890625 10.625 -18.640625 C 9.9375 -17.398438 9.59375 -15.972656 9.59375 -14.359375 C 9.59375 -12.742188 9.9375 -11.3125 10.625 -10.0625 C 11.3125 -8.820312 12.238281 -7.859375 13.40625 -7.171875 C 14.582031 -6.492188 15.894531 -6.15625 17.34375 -6.15625 Z M 17.34375 -6.15625" transform="translate(71.942 42.34)"/></g></g></g><g><g><g><path d="M 16.484375 -22.59375 C 18.515625 -22.59375 20.351562 -22.117188 22 -21.171875 C 23.65625 -20.234375 24.96875 -18.894531 25.9375 -17.15625 C 26.914062 -15.425781 27.40625 -13.410156 27.40625 -11.109375 C 27.40625 -8.816406 26.914062 -6.800781 25.9375 -5.0625 C 24.96875 -3.332031 23.65625 -1.992188 22 -1.046875 C 20.351562 -0.0976562 18.515625 0.375 16.484375 0.375 C 13.890625 0.375 11.828125 -0.40625 10.296875 -1.96875 L 10.296875 7.953125 L 2.5 7.953125 L 2.5 -22.234375 L 9.921875 -22.234375 L 9.921875 -20.015625 C 11.367188 -21.734375 13.554688 -22.59375 16.484375 -22.59375 Z M 14.84375 -5.828125 C 16.21875 -5.828125 17.34375 -6.296875 18.21875 -7.234375 C 19.09375 -8.179688 19.53125 -9.472656 19.53125 -11.109375 C 19.53125 -12.753906 19.09375 -14.046875 18.21875 -14.984375 C 17.34375 -15.929688 16.21875 -16.40625 14.84375 -16.40625 C 13.476562 -16.40625 12.359375 -15.929688 11.484375 -14.984375 C 10.609375 -14.046875 10.171875 -12.753906 10.171875 -11.109375 C 10.171875 -9.472656 10.609375 -8.179688 11.484375 -7.234375 C 12.359375 -6.296875 13.476562 -5.828125 14.84375 -5.828125 Z M 14.84375 -5.828125" transform="translate(106.643 42.34)"/></g></g></g><g><g><g><path d="M 25.21875 -11.078125 C 25.21875 -11.023438 25.179688 -10.378906 25.109375 -9.140625 L 8.9375 -9.140625 C 9.269531 -7.992188 9.90625 -7.113281 10.84375 -6.5 C 11.789062 -5.882812 12.972656 -5.578125 14.390625 -5.578125 C 15.460938 -5.578125 16.382812 -5.726562 17.15625 -6.03125 C 17.9375 -6.332031 18.726562 -6.820312 19.53125 -7.5 L 23.625 -3.234375 C 21.46875 -0.828125 18.3125 0.375 14.15625 0.375 C 11.550781 0.375 9.265625 -0.113281 7.296875 -1.09375 C 5.328125 -2.082031 3.800781 -3.453125 2.71875 -5.203125 C 1.644531 -6.953125 1.109375 -8.9375 1.109375 -11.15625 C 1.109375 -13.34375 1.632812 -15.300781 2.6875 -17.03125 C 3.738281 -18.769531 5.191406 -20.128906 7.046875 -21.109375 C 8.910156 -22.097656 11.003906 -22.59375 13.328125 -22.59375 C 15.546875 -22.59375 17.554688 -22.132812 19.359375 -21.21875 C 21.160156 -20.3125 22.585938 -18.988281 23.640625 -17.25 C 24.691406 -15.507812 25.21875 -13.453125 25.21875 -11.078125 Z M 13.375 -17.0625 C 12.164062 -17.0625 11.15625 -16.71875 10.34375 -16.03125 C 9.539062 -15.351562 9.03125 -14.425781 8.8125 -13.25 L 17.921875 -13.25 C 17.703125 -14.425781 17.1875 -15.351562 16.375 -16.03125 C 15.570312 -16.71875 14.570312 -17.0625 13.375 -17.0625 Z M 13.375 -17.0625" transform="translate(135.151 42.34)"/></g></g></g><g><g><g><path d="M 16.984375 -22.59375 C 19.742188 -22.59375 21.960938 -21.769531 23.640625 -20.125 C 25.328125 -18.488281 26.171875 -16.019531 26.171875 -12.71875 L 26.171875 0 L 18.375 0 L 18.375 -11.4375 C 18.375 -14.476562 17.15625 -16 14.71875 -16 C 13.382812 -16 12.3125 -15.5625 11.5 -14.6875 C 10.695312 -13.8125 10.296875 -12.5 10.296875 -10.75 L 10.296875 0 L 2.5 0 L 2.5 -22.234375 L 9.921875 -22.234375 L 9.921875 -19.8125 C 10.796875 -20.71875 11.832031 -21.40625 13.03125 -21.875 C 14.238281 -22.351562 15.554688 -22.59375 16.984375 -22.59375 Z M 16.984375 -22.59375" transform="translate(161.485 42.34)"/></g></g></g><g><g><g><path d="M 16 -28.71875 C 18.59375 -28.71875 20.847656 -28.285156 22.765625 -27.421875 C 24.679688 -26.554688 26.15625 -25.320312 27.1875 -23.71875 C 28.226562 -22.125 28.75 -20.25 28.75 -18.09375 C 28.75 -15.925781 28.226562 -14.050781 27.1875 -12.46875 C 26.15625 -10.882812 24.679688 -9.660156 22.765625 -8.796875 C 20.847656 -7.929688 18.59375 -7.5 16 -7.5 L 11 -7.5 L 11 0 L 2.875 0 L 2.875 -28.71875 Z M 15.5 -13.90625 C 17.164062 -13.90625 18.421875 -14.265625 19.265625 -14.984375 C 20.117188 -15.710938 20.546875 -16.75 20.546875 -18.09375 C 20.546875 -19.425781 20.117188 -20.460938 19.265625 -21.203125 C 18.421875 -21.941406 17.164062 -22.3125 15.5 -22.3125 L 11 -22.3125 L 11 -13.90625 Z M 15.5 -13.90625" transform="translate(190.034 42.34)"/></g></g></g><g><g><g><path d="M 13.65625 0.375 C 11.28125 0.375 9.132812 -0.113281 7.21875 -1.09375 C 5.300781 -2.082031 3.800781 -3.453125 2.71875 -5.203125 C 1.644531 -6.953125 1.109375 -8.9375 1.109375 -11.15625 C 1.109375 -13.34375 1.644531 -15.3125 2.71875 -17.0625 C 3.800781 -18.8125 5.289062 -20.171875 7.1875 -21.140625 C 9.09375 -22.109375 11.25 -22.59375 13.65625 -22.59375 C 16.0625 -22.59375 18.222656 -22.109375 20.140625 -21.140625 C 22.054688 -20.171875 23.546875 -18.816406 24.609375 -17.078125 C 25.671875 -15.347656 26.203125 -13.375 26.203125 -11.15625 C 26.203125 -8.9375 25.671875 -6.953125 24.609375 -5.203125 C 23.546875 -3.453125 22.054688 -2.082031 20.140625 -1.09375 C 18.222656 -0.113281 16.0625 0.375 13.65625 0.375 Z M 13.65625 -5.828125 C 15.019531 -5.828125 16.140625 -6.296875 17.015625 -7.234375 C 17.890625 -8.179688 18.328125 -9.488281 18.328125 -11.15625 C 18.328125 -12.800781 17.890625 -14.085938 17.015625 -15.015625 C 16.140625 -15.941406 15.019531 -16.40625 13.65625 -16.40625 C 12.289062 -16.40625 11.171875 -15.941406 10.296875 -15.015625 C 9.421875 -14.085938 8.984375 -12.800781 8.984375 -11.15625 C 8.984375 -9.488281 9.421875 -8.179688 10.296875 -7.234375 C 11.171875 -6.296875 12.289062 -5.828125 13.65625 -5.828125 Z M 13.65625 -5.828125" transform="translate(220.264 42.34)"/></g></g></g><g><g><g><path d="M 2.5 -30.4375 L 10.296875 -30.4375 L 10.296875 0 L 2.5 0 Z M 2.5 -30.4375" transform="translate(247.582 42.34)"/></g></g></g><g><g><g><path d="M 25.921875 -22.234375 L 16.328125 0.90625 C 15.203125 3.632812 13.832031 5.550781 12.21875 6.65625 C 10.601562 7.769531 8.632812 8.328125 6.3125 8.328125 C 5.132812 8.328125 3.953125 8.140625 2.765625 7.765625 C 1.578125 7.398438 0.613281 6.914062 -0.125 6.3125 L 2.578125 0.859375 C 3.015625 1.273438 3.539062 1.597656 4.15625 1.828125 C 4.78125 2.054688 5.40625 2.171875 6.03125 2.171875 C 6.769531 2.171875 7.378906 2.019531 7.859375 1.71875 C 8.335938 1.414062 8.738281 0.9375 9.0625 0.28125 L -0.453125 -22.234375 L 7.546875 -22.234375 L 13 -8.65625 L 18.5 -22.234375 Z M 25.921875 -22.234375" transform="translate(260.421 42.34)"/></g></g></g><g><g><g><path d="M 26.421875 -22.234375 L 26.421875 -4.0625 C 26.421875 0.0703125 25.296875 3.171875 23.046875 5.234375 C 20.804688 7.296875 17.582031 8.328125 13.375 8.328125 C 11.1875 8.328125 9.132812 8.078125 7.21875 7.578125 C 5.300781 7.085938 3.675781 6.367188 2.34375 5.421875 L 5.171875 -0.046875 C 6.066406 0.691406 7.207031 1.273438 8.59375 1.703125 C 9.976562 2.128906 11.335938 2.34375 12.671875 2.34375 C 14.722656 2.34375 16.226562 1.890625 17.1875 0.984375 C 18.144531 0.078125 18.625 -1.257812 18.625 -3.03125 L 18.625 -3.78125 C 17.113281 -2.03125 14.910156 -1.15625 12.015625 -1.15625 C 10.046875 -1.15625 8.226562 -1.597656 6.5625 -2.484375 C 4.894531 -3.367188 3.566406 -4.625 2.578125 -6.25 C 1.597656 -7.882812 1.109375 -9.765625 1.109375 -11.890625 C 1.109375 -13.992188 1.597656 -15.859375 2.578125 -17.484375 C 3.566406 -19.117188 4.894531 -20.378906 6.5625 -21.265625 C 8.226562 -22.148438 10.046875 -22.59375 12.015625 -22.59375 C 15.191406 -22.59375 17.515625 -21.570312 18.984375 -19.53125 L 18.984375 -22.234375 Z M 13.859375 -7.34375 C 15.253906 -7.34375 16.410156 -7.765625 17.328125 -8.609375 C 18.242188 -9.460938 18.703125 -10.554688 18.703125 -11.890625 C 18.703125 -13.234375 18.25 -14.320312 17.34375 -15.15625 C 16.445312 -15.988281 15.285156 -16.40625 13.859375 -16.40625 C 12.441406 -16.40625 11.273438 -15.988281 10.359375 -15.15625 C 9.441406 -14.320312 8.984375 -13.234375 8.984375 -11.890625 C 8.984375 -10.554688 9.445312 -9.460938 10.375 -8.609375 C 11.300781 -7.765625 12.460938 -7.34375 13.859375 -7.34375 Z M 13.859375 -7.34375" transform="translate(285.853 42.34)"/></g></g></g></svg>